<svg viewBox="0 0 100 100" fill="none" xmlns="http://www.w3.org/2000/svg">
  <defs>
    <linearGradient id="flameGradient" x1="50%" y1="100%" x2="50%" y2="0%">
      <stop offset="0%" stop-color="#FF6B35" />
      <stop offset="50%" stop-color="#F7931E" />
      <stop offset="100%" stop-color="#FFD700" />
    </linearGradient>
    <linearGradient id="outerGlow" x1="50%" y1="100%" x2="50%" y2="0%">
      <stop offset="0%" stop-color="#FF4500" stop-opacity="0.8" />
      <stop offset="100%" stop-color="#FFD700" stop-opacity="0.2" />
    </linearGradient>
  </defs>
  <circle cx="50" cy="50" r="49" fill="#0a0a0f"/>
  <circle cx="50" cy="50" r="46" fill="url(#outerGlow)" opacity="0.3" />
  <circle cx="50" cy="50" r="42" stroke="url(#flameGradient)" stroke-width="3" fill="none" />
  <path
    d="M50 14 C32 32, 20 50, 26 68 C32 86, 44 90, 50 90 C56 90, 68 86, 74 68 C80 50, 68 32, 50 14"
    fill="url(#flameGradient)"
  />
  <path
    d="M50 32 C40 45, 34 56, 40 68 C44 78, 48 80, 50 80 C52 80, 56 78, 60 68 C66 56, 60 45, 50 32"
    fill="#FFD700"
    opacity="0.8"
  />
  <text
    x="50"
    y="62"
    text-anchor="middle"
    font-size="20"
    font-weight="bold"
    fill="#FFFFFF"
    font-family="sans-serif"
  >T</text>
</svg>
