<svg viewBox="0 0 100 100" fill="none" xmlns="http://www.w3.org/2000/svg">
  <defs>
    <linearGradient id="flameGradient" x1="50%" y1="100%" x2="50%" y2="0%">
      <stop offset="0%" stop-color="#FF6B35" />
      <stop offset="50%" stop-color="#F7931E" />
      <stop offset="100%" stop-color="#FFD700" />
    </linearGradient>
    <linearGradient id="outerGlow" x1="50%" y1="100%" x2="50%" y2="0%">
      <stop offset="0%" stop-color="#FF4500" stop-opacity="0.8" />
      <stop offset="100%" stop-color="#FFD700" stop-opacity="0.2" />
    </linearGradient>
  </defs>
  <circle cx="50" cy="50" r="50" fill="#0a0a0f"/>
  <circle cx="50" cy="50" r="47" fill="url(#outerGlow)" opacity="0.3" />
  <circle cx="50" cy="50" r="43" stroke="url(#flameGradient)" stroke-width="3" fill="none" />
  <path
    d="M50 12 C31 31, 18 50, 24 69 C31 88, 43 92, 50 92 C57 92, 69 88, 76 69 C82 50, 69 31, 50 12"
    fill="url(#flameGradient)"
  />
  <path
    d="M50 30 C39 44, 32 56, 39 69 C43 80, 47 82, 50 82 C53 82, 57 80, 61 69 C68 56, 61 44, 50 30"
    fill="#FFD700"
    opacity="0.8"
  />
  <text
    x="50"
    y="64"
    text-anchor="middle"
    font-size="21"
    font-weight="bold"
    fill="#FFFFFF"
    font-family="sans-serif"
  >T</text>
</svg>
